Sprint_08550001_forces_filt15Hz.mot
version=1
nRows=19
nColumns=19
inDegrees=yes
endheader
time	R_ground_force_vx	R_ground_force_vy	R_ground_force_vz	R_ground_force_px	R_ground_force_py	R_ground_force_pz	R_ground_torque_x	R_ground_torque_y	R_ground_torque_z	L_ground_force_vx	L_ground_force_vy	L_ground_force_vz	L_ground_force_px	L_ground_force_py	L_ground_force_pz	L_ground_torque_x	L_ground_torque_y	L_ground_torque_z	
1.194500	  0.000000	  0.000000	  0.000000	  0.421790	  0.000000	 -0.232805	  0.000000	  0.000000	  0.000000	-273.906049	1850.046177	201.761718	  1.025062	  0.000000	 -0.376069	  0.000000	 -5.086851	  0.000000
1.195000	  0.000000	  0.000000	  0.000000	  0.424177	  0.000000	 -0.233091	  0.000000	  0.000000	  0.000000	-276.342583	1882.217790	201.610010	  1.022486	  0.000000	 -0.375470	  0.000000	 -6.158910	  0.000000
1.195500	  0.000000	  0.000000	  0.000000	  0.426591	  0.000000	 -0.233088	  0.000000	  0.000000	  0.000000	-278.754077	1914.345488	201.200306	  1.019926	  0.000000	 -0.374879	  0.000000	 -7.218641	  0.000000
1.196000	  0.000000	  0.000000	  0.000000	  0.429005	  0.000000	 -0.233085	  0.000000	  0.000000	  0.000000	-281.135225	1946.409646	200.531581	  1.017385	  0.000000	 -0.374296	  0.000000	 -8.260504	  0.000000
1.196500	  0.000000	  0.000000	  0.000000	  0.431419	  0.000000	 -0.233083	  0.000000	  0.000000	  0.000000	-283.480961	1978.390002	199.603563	  1.014868	  0.000000	 -0.373721	  0.000000	 -9.279376	  0.000000
1.197000	  0.000000	  0.000000	  0.000000	  0.433833	  0.000000	 -0.233080	  0.000000	  0.000000	  0.000000	-285.786677	2010.265837	198.416604	  1.012376	  0.000000	 -0.373152	  0.000000	-10.270653	  0.000000
1.197500	  0.000000	  0.000000	  0.000000	  0.436247	  0.000000	 -0.233078	  0.000000	  0.000000	  0.000000	-288.048376	2042.016166	196.971543	  1.009914	  0.000000	 -0.372592	  0.000000	-11.230310	  0.000000
1.198000	  0.000000	  0.000000	  0.000000	  0.438661	  0.000000	 -0.233075	  0.000000	  0.000000	  0.000000	-290.262752	2073.619906	195.269589	  1.007483	  0.000000	 -0.372039	  0.000000	-12.154943	  0.000000
1.198500	  0.000000	  0.000000	  0.000000	  0.441075	  0.000000	 -0.233072	  0.000000	  0.000000	  0.000000	-292.427200	2105.056022	193.312233	  1.005084	  0.000000	 -0.371493	  0.000000	-13.041756	  0.000000
1.199000	  0.000000	  0.000000	  0.000000	  0.443489	  0.000000	 -0.233070	  0.000000	  0.000000	  0.000000	-294.539774	2136.303629	191.101192	  1.002718	  0.000000	 -0.370955	  0.000000	-13.888528	  0.000000
1.199500	  0.000000	  0.000000	  0.000000	  0.445903	  0.000000	 -0.233067	  0.000000	  0.000000	  0.000000	-296.599104	2167.342074	188.638406	  1.000385	  0.000000	 -0.370425	  0.000000	-14.693543	  0.000000
1.200000	  0.000000	  0.000000	  0.000000	  0.448317	  0.000000	 -0.233064	  0.000000	  0.000000	  0.000000	-298.604297	2198.150944	185.926067	  0.998085	  0.000000	 -0.369904	  0.000000	-15.455521	  0.000000
1.200500	  0.000000	  0.000000	  0.000000	  0.450723	  0.000000	 -0.232934	  0.000000	  0.000000	  0.000000	-300.554822	2228.710031	182.966689	  0.995818	  0.000000	 -0.369391	  0.000000	-16.173540	  0.000000
1.201000	  0.000000	  0.000000	  0.000000	  0.453128	  0.000000	 -0.232804	  0.000000	  0.000000	  0.000000	-302.450395	2258.999264	179.763190	  0.993582	  0.000000	 -0.368887	  0.000000	-16.846980	  0.000000
1.201500	  0.000000	  0.000000	  0.000000	  0.455534	  0.000000	 -0.232674	  0.000000	  0.000000	  0.000000	-304.290857	2288.998612	176.318988	  0.991375	  0.000000	 -0.368392	  0.000000	-17.475479	  0.000000
1.202000	  0.000000	  0.000000	  0.000000	  0.457940	  0.000000	 -0.232544	  0.000000	  0.000000	  0.000000	-306.076051	2318.687997	172.638078	  0.989196	  0.000000	 -0.367907	  0.000000	-18.058901	  0.000000
1.202500	  0.000000	  0.000000	  0.000000	  0.460345	  0.000000	 -0.232415	  0.000000	  0.000000	  0.000000	-307.805692	2348.047244	168.725111	  0.987043	  0.000000	 -0.367432	  0.000000	-18.597304	  0.000000
1.203000	  0.000000	  0.000000	  0.000000	  0.462751	  0.000000	 -0.232285	  0.000000	  0.000000	  0.000000	-309.479229	2377.056087	164.585456	  0.984914	  0.000000	 -0.366967	  0.000000	-19.090905	  0.000000
1.203500	  0.000000	  0.000000	  0.000000	  0.465157	  0.000000	 -0.232155	  0.000000	  0.000000	  0.000000	-311.095705	2405.694249	160.225247	  0.982805	  0.000000	 -0.366513	  0.000000	-19.540030	  0.000000
